
<svg width="200" height="200" viewBox="0 0 200 200" fill="none" xmlns="http://www.w3.org/2000/svg">
  <!-- Phone -->
  <rect x="70" y="30" width="60" height="120" rx="10" fill="#E5E5E5" stroke="#333333" stroke-width="2"/>
  <rect x="75" y="40" width="50" height="90" rx="2" fill="#FFFFFF"/>
  <circle cx="100" cy="140" r="6" fill="#FFFFFF" stroke="#333333" stroke-width="1"/>
  
  <!-- Coffee cup -->
  <rect x="140" y="100" width="30" height="40" rx="5" fill="#F7D02C"/>
  <rect x="138" y="95" width="34" height="5" rx="2" fill="#E5BB25"/>
  <path d="M170 110 Q180 115 170 130" stroke="#333333" stroke-width="2" fill="none"/>
  
  <!-- Shopping bag -->
  <path d="M45 100 L55 140 H25 L35 100" fill="#10B981"/>
  <path d="M45 100 L55 140 H25 L35 100" stroke="#333333" stroke-width="1.5" fill="none"/>
  <path d="M35 100 V90 A10 10 0 0 1 45 90 V100" stroke="#333333" stroke-width="1.5" fill="none"/>
  
  <!-- Checkmarks -->
  <rect x="80" y="50" width="40" height="10" rx="2" fill="#F2F2F2"/>
  <rect x="80" y="65" width="40" height="10" rx="2" fill="#F2F2F2"/>
  <rect x="80" y="80" width="40" height="10" rx="2" fill="#F2F2F2"/>
  <rect x="80" y="95" width="40" height="10" rx="2" fill="#F2F2F2"/>
  
  <circle cx="85" cy="55" r="3" fill="#10B981"/>
  <circle cx="85" cy="70" r="3" fill="#DDDDDD"/>
  <circle cx="85" cy="85" r="3" fill="#10B981"/>
  <circle cx="85" cy="100" r="3" fill="#DDDDDD"/>
</svg>
